<svg xmlns="http://www.w3.org/2000/svg" version="1.1" xmlns:xlink="http://www.w3.org/1999/xlink" xmlns:svgjs="http://svgjs.dev/svgjs" width="750" height="267" viewBox="0 0 1500 534"><g transform="matrix(1,0,0,1,-0.9090909090909918,-0.23578694378323917)"><svg viewBox="0 0 396 141" data-background-color="#ffffff" preserveAspectRatio="xMidYMid meet" height="534" width="1500" xmlns="http://www.w3.org/2000/svg" xmlns:xlink="http://www.w3.org/1999/xlink"><g id="tight-bounds" transform="matrix(1,0,0,1,0.2400000000000091,0.06225835032478244)"><svg viewBox="0 0 395.52 140.87548329935044" height="140.87548329935044" width="395.52"><g><svg viewBox="0 0 395.52 140.87548329935044" height="140.87548329935044" width="395.52"><g><svg viewBox="0 0 686.2620041683701 244.43135999999996" height="140.87548329935044" width="395.52"><g transform="matrix(1,0,0,1,290.74200416837016,24.131494889335997)"><svg viewBox="0 0 395.52 196.16837022132796" height="196.16837022132796" width="395.52"><g id="textblocktransform"><svg viewBox="0 0 395.52 196.16837022132796" height="196.16837022132796" width="395.52" id="textblock"><g><svg viewBox="0 0 395.52 196.16837022132796" height="196.16837022132796" width="395.52"><g transform="matrix(1,0,0,1,0,0)"><svg width="395.52" viewBox="3 -34.8 99.39 49.3" height="196.16837022132796" data-palette-color="#131313"><path d="M5.05-34.8L5.05-34.8 15.15-34.5 25.25-34.8Q26.05-34.8 26.68-34.27 27.3-33.75 27.3-32.85 27.3-31.95 26.68-31.43 26.05-30.9 25.25-30.9L25.25-30.9 15.15-31.2Q13.85-31.2 10.95-31.1L10.95-31.1Q10.95-31 10.78-27.75 10.6-24.5 10.55-21.25L10.55-21.25Q12.45-21.05 14.9-19.83 17.35-18.6 18.48-18.6 19.6-18.6 20.5-19.03 21.4-19.45 21.7-20L21.7-20Q22.4-21.35 23.4-21.35L23.4-21.35Q24.6-21.35 24.6-19.88 24.6-18.4 22.75-16.48 20.9-14.55 18.43-14.55 15.95-14.55 13.68-16.1 11.4-17.65 10.55-17.8L10.55-17.8Q10.55-12.55 10.78-7.7 11-2.85 11-2.08 11-1.3 10.33-0.5 9.65 0.3 8.6 0.3 7.55 0.3 6.88-0.5 6.2-1.3 6.2-2.18 6.2-3.05 6.4-7.45 6.6-11.85 6.65-16.35L6.65-16.35Q6.55-16.25 6.35-16.03 6.15-15.8 6.05-15.7 5.95-15.6 5.75-15.45 5.55-15.3 5.4-15.2L5.4-15.2Q5.15-15.05 4.8-15.05L4.8-15.05Q3.7-15.05 3.7-16.4L3.7-16.4Q3.7-17.2 4.55-18.3 5.4-19.4 6.65-20.2L6.65-20.2Q6.65-23 6.2-30.9L6.2-30.9 5.05-30.9Q4.25-30.9 3.63-31.43 3-31.95 3-32.85 3-33.75 3.63-34.27 4.25-34.8 5.05-34.8ZM33.1-3.65L33.1-3.65Q33.1-9.95 32.85-14.7 32.6-19.45 32.6-20.3 32.6-21.15 33.27-21.98 33.95-22.8 34.9-22.8 35.85-22.8 36.45-22.03 37.05-21.25 37.05-19.78 37.05-18.3 36.7-14.83 36.35-11.35 36.35-7.6L36.35-7.6Q36.35-6.1 36.97-4.73 37.6-3.35 37.6-2.23 37.6-1.1 36.97-0.4 36.35 0.3 35.27 0.3 34.2 0.3 33.65-0.9 33.1-2.1 33.1-3.65ZM34.7-28.45Q33.6-28.45 32.95-29.05 32.3-29.65 32.3-30.8 32.3-31.95 33.1-32.77 33.9-33.6 35-33.6 36.1-33.6 36.77-32.98 37.45-32.35 37.45-31.2 37.45-30.05 36.62-29.25 35.8-28.45 34.7-28.45ZM56.89-14.83Q55.95-15.85 55.95-17.25 55.95-18.65 56.89-19.68 57.84-20.7 59.17-20.7 60.5-20.7 61.42-19.7 62.34-18.7 62.34-17.28 62.34-15.85 61.42-14.83 60.5-13.8 59.17-13.8 57.84-13.8 56.89-14.83ZM46.7-18.18Q46.7-12.1 50.27-7.6 53.84-3.1 59.45-3.1 65.05-3.1 68.32-6.68 71.59-10.25 71.59-16.32 71.59-22.4 68.02-26.9 64.44-31.4 58.82-31.4 53.2-31.4 49.95-27.83 46.7-24.25 46.7-18.18ZM57.95 0.3L57.95 0.3Q51.45 0.3 47.02-4.38 42.59-9.05 42.59-15.7L42.59-15.7Q42.59-24 47.59-29.4 52.59-34.8 60.34-34.8L60.34-34.8Q66.84-34.8 71.27-30.13 75.69-25.45 75.69-18.8L75.69-18.8Q75.69-10.5 70.69-5.1 65.69 0.3 57.95 0.3ZM96.69-28.35L96.69-28.35Q93.84-31.8 90.84-31.8L90.84-31.8Q88.49-31.8 86.89-30.2 85.29-28.6 85.29-26.4 85.29-24.2 86.57-22.75 87.84-21.3 89.74-20.35 91.64-19.4 93.84-18.13 96.04-16.85 97.94-15.48 99.84-14.1 101.12-11.73 102.39-9.35 102.39-5.9 102.39-2.45 101.04 0.95 99.69 4.35 97.49 6.8 95.29 9.25 92.44 11L92.44 11Q86.74 14.5 80.59 14.5L80.59 14.5Q76.44 14.5 73.37 12.45 70.29 10.4 70.29 7.8 70.29 5.2 72.74 5.2L72.74 5.2Q73.69 5.2 76.59 7.85L76.59 7.85Q77.69 8.85 79.62 9.68 81.54 10.5 83.92 10.5 86.29 10.5 88.89 9.6 91.49 8.7 93.77 7.03 96.04 5.35 97.44 2.58 98.84-0.2 98.84-3.63 98.84-7.05 97.04-9.45 95.24-11.85 92.69-13.2 90.14-14.55 87.59-15.83 85.04-17.1 83.24-19.1 81.44-21.1 81.44-23.98 81.44-26.85 82.72-29.1 83.99-31.35 85.94-32.5L85.94-32.5Q89.64-34.8 93.29-34.8 96.94-34.8 99.24-33.1 101.54-31.4 101.54-29.2L101.54-29.2Q101.54-27.9 100.89-27.23 100.24-26.55 99.39-26.55 98.54-26.55 97.97-27.03 97.39-27.5 96.69-28.35Z" opacity="1" transform="matrix(1,0,0,1,0,0)" fill="#131313" class="wordmark-text-0" data-fill-palette-color="primary" id="text-0"></path></svg></g></svg></g></svg></g></svg></g><g><svg viewBox="0 0 244.43135999999996 244.43135999999996" height="244.43135999999996" width="244.43135999999996"><g><svg xmlns="http://www.w3.org/2000/svg" xmlns:xlink="http://www.w3.org/1999/xlink" version="1.1" x="0" y="0" viewBox="5 5 90 90" style="enable-background:new 0 0 100 100;" xml:space="preserve" height="244.43135999999996" width="244.43135999999996" class="icon-icon-0" data-fill-palette-color="accent" id="icon-0"><path d="M53.75 5C42.731 5 32.373 9.291 24.582 17.082l-7.5 7.5C9.291 32.373 5 42.731 5 53.75s4.291 21.377 12.082 29.168S35.231 95 46.25 95s21.377-4.291 29.168-12.082l7.5-7.5C90.709 67.627 95 57.269 95 46.25s-4.291-21.377-12.082-29.168S64.769 5 53.75 5zM71.883 79.383c-14.135 14.133-37.131 14.133-51.266 0-14.134-14.134-14.134-37.132 0-51.266 7.067-7.066 16.35-10.601 25.633-10.601s18.565 3.534 25.633 10.601C86.017 42.251 86.017 65.249 71.883 79.383zM86.858 60.994c0.417-2.369 0.642-4.788 0.642-7.244 0-11.019-4.291-21.377-12.082-29.168S57.269 12.5 46.25 12.5c-2.455 0-4.875 0.225-7.243 0.642 4.68-2.078 9.71-3.126 14.743-3.126 9.283 0 18.565 3.534 25.633 10.601C90.281 31.516 92.767 47.682 86.858 60.994z" fill="#f4dcfe" data-fill-palette-color="accent"></path><path d="M46.25 22.5c-6.484 0-12.512 1.986-17.51 5.38-0.086 0.051-0.166 0.113-0.246 0.175C20.349 33.701 15 43.11 15 53.75 15 70.981 29.019 85 46.25 85c10.641 0 20.052-5.35 25.698-13.497 0.061-0.079 0.121-0.157 0.172-0.241C75.514 66.263 77.5 60.234 77.5 53.75 77.5 36.519 63.481 22.5 46.25 22.5zM46.25 80C31.775 80 20 68.225 20 53.75c0-4.236 1.015-8.238 2.805-11.784-0.194 1.412-0.305 2.841-0.305 4.284 0 17.231 14.019 31.25 31.25 31.25 1.443 0 2.872-0.111 4.284-0.305C54.488 78.985 50.486 80 46.25 80zM68.171 68.166C63.882 70.995 58.911 72.5 53.75 72.5c-14.475 0-26.25-11.775-26.25-26.25 0-5.161 1.505-10.132 4.334-14.421 4.141-2.732 9.095-4.329 14.416-4.329 14.475 0 26.25 11.775 26.25 26.25C72.5 59.072 70.904 64.026 68.171 68.166z" fill="#f4dcfe" data-fill-palette-color="accent"></path></svg></g></svg></g></svg></g></svg></g><defs></defs></svg><rect width="395.52" height="140.87548329935044" fill="none" stroke="none" visibility="hidden"></rect></g></svg></g></svg>
